# xmcd
# 
# Track frame offsets:
#     150
#     18749
#     22525
#     44034
#     59638
#     76235
#     95814
#     113843
# 
# Disc length: 1667
# 
# Revision: 0
# Processed by: cddbd v1.5.2PL0 Copyright (c) Steve Scherf et al.
# Submitted via: BonkEnc v1.0.8
# 
DISCID=64068108
DTITLE=Coldplay - Prospekts March
DYEAR=2009
DGENRE=Rock
TTITLE0=Life in technicolor II
TTITLE1=Postcards from far away
TTITLE2=Glass of water
TTITLE3=Rainy day
TTITLE4=Prospekts march - poppyfields
TTITLE5=Lost
TTITLE6=Lovers in Japan
TTITLE7=Now my feet won't touch the ground
EXTD=
EXTT0=
EXTT1=
EXTT2=
EXTT3=
EXTT4=
EXTT5=
EXTT6=
EXTT7=
PLAYORDER=
